<?xml version="1.0" encoding="UTF-8" standalone="no"?>
<!-- Created with Inkscape (http://www.inkscape.org/) -->

<svg
   xmlns:dc="http://purl.org/dc/elements/1.1/"
   xmlns:cc="http://creativecommons.org/ns#"
   xmlns:rdf="http://www.w3.org/1999/02/22-rdf-syntax-ns#"
   xmlns:svg="http://www.w3.org/2000/svg"
   xmlns="http://www.w3.org/2000/svg"
   xmlns:sodipodi="http://sodipodi.sourceforge.net/DTD/sodipodi-0.dtd"
   xmlns:inkscape="http://www.inkscape.org/namespaces/inkscape"
   width="144.56427mm"
   height="133.74438mm"
   viewBox="0 0 144.56427 133.74438"
   version="1.1"
   id="svg8"
   inkscape:version="0.92.4 (5da689c313, 2019-01-14)"
   sodipodi:docname="Pajarita.svg"
   inkscape:export-filename="C:\Users\q92he\Google Drive\ASIR\1ºASIR1920\LMSGI\AndresHeras.github.io\LM\images\Pajarita.png"
   inkscape:export-xdpi="96"
   inkscape:export-ydpi="96">
  <defs
     id="defs2" />
  <sodipodi:namedview
     id="base"
     pagecolor="#ffffff"
     bordercolor="#666666"
     borderopacity="1.0"
     inkscape:pageopacity="0.0"
     inkscape:pageshadow="2"
     inkscape:zoom="1"
     inkscape:cx="295.10743"
     inkscape:cy="264.63701"
     inkscape:document-units="mm"
     inkscape:current-layer="layer1"
     showgrid="false"
     inkscape:snap-page="true"
     inkscape:window-width="1366"
     inkscape:window-height="705"
     inkscape:window-x="-8"
     inkscape:window-y="-8"
     inkscape:window-maximized="1" />
  <metadata
     id="metadata5">
    <rdf:RDF>
      <cc:Work
         rdf:about="">
        <dc:format>image/svg+xml</dc:format>
        <dc:type
           rdf:resource="http://purl.org/dc/dcmitype/StillImage" />
        <dc:title />
      </cc:Work>
    </rdf:RDF>
  </metadata>
  <g
     inkscape:label="Capa 1"
     inkscape:groupmode="layer"
     id="layer1"
     transform="translate(-25.935017,-26.745732)">
    <path
       style="fill:none;stroke:#000000;stroke-width:1.05029678px;stroke-linecap:butt;stroke-linejoin:miter;stroke-opacity:1"
       d="m 92.441673,28.370772 0.32814,61.563704"
       id="path3779"
       inkscape:connector-curvature="0" />
    <path
       style="fill:none;stroke:#000000;stroke-width:1.05029678px;stroke-linecap:butt;stroke-linejoin:miter;stroke-opacity:1"
       d="m 27.134563,158.92592 62.95762,0.24856"
       id="path3781"
       inkscape:connector-curvature="0" />
    <path
       style="fill:none;stroke:#000000;stroke-width:1.05029678px;stroke-linecap:butt;stroke-linejoin:miter;stroke-opacity:1"
       d="m 125.72919,128.78915 44.08801,28.35738 c -3.56458,-24.99281 -4.86317,-47.12061 -6.85647,-69.596057 l -32.10477,-26.524802 37.33395,-33.750958 -76.118057,0.213126 0.69952,62.44601 -66.460158,68.235571"
       id="path3783"
       inkscape:connector-curvature="0"
       sodipodi:nodetypes="cccccccc" />
    <g
       id="g3788"
       transform="matrix(4.0066354,0,0,3.9329586,-326.04379,-328.17744)">
      <path
         inkscape:connector-curvature="0"
         id="path3785"
         d="m 103.8617,123.91484 8.8945,-7.72582 v 0 l 11.00375,7.21019 v 0"
         style="fill:none;stroke:#000000;stroke-width:0.26458332px;stroke-linecap:butt;stroke-linejoin:miter;stroke-opacity:1" />
    </g>
    <path
       style="fill:#008000;fill-opacity:1;stroke:none;stroke-width:0.52514845;stroke-opacity:1"
       d="m 27.696326,158.10497 c 0,-0.11479 14.78681,-15.392 32.859593,-33.94943 l 32.859574,-33.740807 0.003,-31.087782 0.003,-31.087783 h 36.043017 c 19.82366,0 36.04302,0.09386 36.04302,0.208671 0,0.11476 -7.99043,7.422212 -17.75649,16.23877 -9.76607,8.816568 -17.75648,16.170278 -17.75648,16.341592 0,0.171312 7.17226,6.232977 15.93836,13.470361 8.76609,7.237379 16.03397,13.428075 16.15081,13.757082 0.11689,0.329008 1.05952,10.595457 2.09478,22.814306 1.03528,12.21886 2.4742,27.06605 3.19761,32.99376 0.72341,5.92771 1.23165,10.85977 1.12943,10.96011 -0.10217,0.10024 -9.65239,-5.90827 -21.22259,-13.35251 -11.57019,-7.44426 -21.25482,-13.535 -21.52138,-13.535 -0.26658,0 -8.42734,6.78435 -18.13503,15.07632 l -17.650347,15.07631 -31.140102,0.0128 c -17.127066,0.007 -31.140117,-0.0816 -31.140117,-0.19629 z"
       id="path3790"
       inkscape:connector-curvature="0" />
    <path
       style="fill:none;stroke:#000000;stroke-width:1.05029678px;stroke-linecap:butt;stroke-linejoin:miter;stroke-opacity:1"
       d="M 92.769813,89.934476 130.85596,61.025671 125.72919,128.78915 Z"
       id="path3794"
       inkscape:connector-curvature="0" />
    <path
       style="fill:none;stroke:#000000;stroke-width:1.05029678px;stroke-linecap:butt;stroke-linejoin:miter;stroke-opacity:1"
       d="m 93.415483,90.414733 -3.3233,68.759747 72.868547,-71.624007"
       id="path3796"
       inkscape:connector-curvature="0" />
    <path
       style="fill:none;stroke:#000000;stroke-width:1.05029678px;stroke-linecap:butt;stroke-linejoin:miter;stroke-opacity:1"
       d="m 130.85596,61.025671 -37.434107,-32.786503 -1.35,-0.751329 v 0"
       id="path3800"
       inkscape:connector-curvature="0" />
  </g>
</svg>
