<?xml version="1.0" encoding="iso-8859-1"?>
<!-- Generator: Adobe Illustrator 19.0.0, SVG Export Plug-In . SVG Version: 6.00 Build 0)  -->
<svg version="1.1" id="Capa_1" xmlns="http://www.w3.org/2000/svg" xmlns:xlink="http://www.w3.org/1999/xlink" x="0px" y="0px"
	 viewBox="0 0 512 512" style="enable-background:new 0 0 512 512;" xml:space="preserve">
<path style="fill:#E5B77A;" d="M460.202,62.664v134.538c-6.603-0.693-12.686-3.171-17.741-6.95
	c-8.812-6.56-14.516-17.059-14.516-28.89c0-14.364-4.319-27.743-11.745-38.892c-2.175-3.269-4.611-6.344-7.295-9.201
	c-5.261-5.618-11.431-10.37-18.261-14.017c-6.873-3.67-14.419-6.235-22.407-7.458c-3.302-0.509-6.689-0.79-10.132-0.812
	c-3.442,0.022-6.831,0.303-10.143,0.812c-7.988,1.212-15.533,3.789-22.407,7.458c-6.83,3.658-13.001,8.4-18.261,14.017
	c-1.84,1.97-3.573,4.037-5.174,6.203c-8.703,11.702-13.866,26.206-13.866,41.891c0,10.846-4.807,20.589-12.395,27.18
	c-5.433,4.741-12.308,7.869-19.862,8.66c-6.603-0.693-12.686-3.171-17.741-6.95c-8.811-6.56-14.516-17.059-14.516-28.89
	c0-14.364-4.319-27.733-11.745-38.882c-2.175-3.269-4.622-6.354-7.295-9.212c-5.261-5.618-11.43-10.37-18.261-14.017
	c-6.873-3.67-14.419-6.235-22.407-7.458c-3.302-0.509-6.689-0.79-10.131-0.812c-3.442,0.022-6.83,0.303-10.143,0.812
	c-7.988,1.212-15.533,3.789-22.407,7.458c-6.83,3.658-13.001,8.4-18.261,14.017c-2.609,2.782-4.99,5.78-7.123,8.952
	c-7.523,11.193-11.918,24.659-11.918,39.142c0,11.755-5.629,22.191-14.342,28.771c-5.088,3.843-11.236,6.364-17.915,7.069V62.664
	c5.52-5.736,11.506-11.019,17.915-15.772c4.807-3.573,9.84-6.83,15.079-9.775c3.626-2.046,7.36-3.94,11.181-5.661
	c10.695-4.839,22.104-8.389,34-10.446v-0.01c7.772-1.353,15.772-2.068,23.922-2.1c0,0,0.01,0,0.022,0
	c8.151,0.032,16.128,0.747,23.911,2.1v0.01c11.961,2.078,23.425,5.651,34.173,10.533c3.767,1.699,7.437,3.561,11.02,5.575
	c5.304,2.977,10.392,6.289,15.241,9.905c6.344,4.72,12.275,9.947,17.741,15.641c6.072-6.322,12.719-12.08,19.862-17.19
	c4.211-3.02,8.594-5.813,13.13-8.356c4.243-2.392,8.627-4.568,13.13-6.527c10.132-4.395,20.87-7.642,32.051-9.58v-0.01
	c7.772-1.353,15.771-2.068,23.922-2.1c0,0,0.01,0,0.022,0c8.151,0.032,16.129,0.747,23.911,2.1v0.01
	c11.961,2.078,23.425,5.651,34.173,10.533c3.767,1.699,7.437,3.561,11.02,5.575c5.293,2.977,10.392,6.289,15.241,9.905
	C448.805,51.741,454.736,56.97,460.202,62.664z"/>
<g>
	<path style="fill:#CE9F67;" d="M442.461,47.021v143.23c-8.812-6.56-14.516-17.059-14.516-28.89
		c0-14.364-4.319-27.743-11.745-38.892V31.542c3.767,1.699,7.437,3.561,11.019,5.575C432.514,40.094,437.612,43.406,442.461,47.021z
		"/>
	<path style="fill:#CE9F67;" d="M302.122,30.59v88.88c-8.703,11.702-13.866,26.206-13.866,41.891
		c0,10.846-4.807,20.589-12.395,27.18V45.474c4.211-3.02,8.594-5.813,13.13-8.356C293.235,34.725,297.618,32.55,302.122,30.59z"/>
	<path style="fill:#CE9F67;" d="M238.257,47.021v143.23c-8.811-6.56-14.516-17.059-14.516-28.89
		c0-14.364-4.319-27.733-11.745-38.882V31.542c3.767,1.699,7.437,3.561,11.02,5.575C228.32,40.094,233.407,43.406,238.257,47.021z"
		/>
	<path style="fill:#CE9F67;" d="M95.969,31.456v90.764c-7.523,11.193-11.918,24.659-11.918,39.142
		c0,11.755-5.629,22.19-14.342,28.771V46.892c4.807-3.573,9.84-6.83,15.079-9.775C88.413,35.072,92.147,33.178,95.969,31.456z"/>
</g>
<path style="fill:#B76F39;" d="M460.202,62.664v5.055l-17.741,15.749l-26.26,23.327l-7.295,6.473
	c-5.261-5.618-11.431-10.37-18.261-14.017l25.557-43.418l11.02-18.715c3.096,1.743,6.126,3.593,9.071,5.564
	c0.455,0.293,0.921,0.606,1.375,0.921c1.624,1.104,3.226,2.252,4.795,3.421C448.805,51.741,454.736,56.97,460.202,62.664z"/>
<path style="fill:#A56032;" d="M442.461,47.021v36.446l-26.26,23.327V55.833l11.019-18.715c3.096,1.743,6.126,3.593,9.071,5.564
	c0.455,0.293,0.921,0.606,1.375,0.921C439.29,44.705,440.892,45.852,442.461,47.021z"/>
<g>
	<path style="fill:#B76F39;" d="M382.029,20.999v0.01l-13.791,70.781c-3.302-0.509-6.689-0.79-10.131-0.812
		c-3.442,0.022-6.831,0.303-10.143,0.812L334.174,21.01v-0.01c7.772-1.353,15.772-2.068,23.922-2.1c0,0,0.01,0,0.022,0
		C366.269,18.933,374.247,19.646,382.029,20.999z"/>
	<path style="fill:#B76F39;" d="M325.557,99.25c-6.83,3.658-13.001,8.4-18.261,14.017l-5.174-4.589l-26.26-23.327l-19.862-17.633
		v-5.055c6.072-6.322,12.719-12.08,19.862-17.19c0.531-0.379,1.05-0.747,1.591-1.125c0.531-0.368,1.061-0.736,1.602-1.093
		c2.076-1.421,4.208-2.765,6.365-4.059c1.18-0.715,2.371-1.407,3.573-2.078l13.13,22.31L325.557,99.25z"/>
</g>
<path style="fill:#A56032;" d="M302.122,59.426v49.251l-26.26-23.327V45.474c0.531-0.379,2.652-1.862,3.193-2.219
	c2.076-1.421,4.208-2.765,6.365-4.059c1.18-0.715,2.371-1.407,3.573-2.078L302.122,59.426z"/>
<path style="fill:#B76F39;" d="M255.998,62.664v5.055l-17.741,15.749l-26.26,23.327l-7.295,6.473
	c-5.261-5.618-11.43-10.37-18.261-14.017l25.556-43.418l11.02-18.715c1.731,0.974,3.431,1.981,5.12,3.02
	c0.552,0.335,1.093,0.682,1.634,1.028c0.736,0.465,1.472,0.941,2.197,1.428c0.497,0.335,1.006,0.671,1.494,1.006
	c1.624,1.104,3.226,2.252,4.795,3.421C244.6,51.741,250.532,56.97,255.998,62.664z"/>
<path style="fill:#A56032;" d="M238.257,47.021v36.446l-26.26,23.327V55.833l11.02-18.715c1.731,0.974,3.431,1.981,5.12,3.02
	c1.809,1.099,3.583,2.263,5.326,3.464C235.085,44.705,236.687,45.852,238.257,47.021z"/>
<g>
	<path style="fill:#B76F39;" d="M177.824,20.999v0.01l-13.791,70.781c-3.302-0.509-6.689-0.79-10.131-0.812
		c-3.442,0.022-6.83,0.303-10.143,0.812L129.969,21.01v-0.01c7.772-1.353,15.772-2.068,23.922-2.1c0,0,0.01,0,0.022,0
		C162.063,18.933,170.04,19.646,177.824,20.999z"/>
	<path style="fill:#B76F39;" d="M121.351,99.25c-6.83,3.658-13.001,8.4-18.261,14.017l-7.123-6.322L69.708,83.631L51.793,67.718
		v-5.055c5.52-5.736,11.506-11.019,17.915-15.772c1.202-0.887,2.414-1.765,3.648-2.62c0.335-0.238,0.682-0.476,1.028-0.703
		c0.476-0.325,0.963-0.66,1.45-0.974c1.202-0.801,2.414-1.58,3.648-2.349c0.422-0.26,0.855-0.519,1.288-0.79
		c0.574-0.347,1.147-0.682,1.732-1.028c0.758-0.444,1.515-0.877,2.284-1.31l11.181,18.997L121.351,99.25z"/>
</g>
<path style="fill:#A56032;" d="M95.969,56.114v50.832l-26.26-23.316V46.892c4.119-3.043,8.389-5.855,12.795-8.465
	c0.758-0.444,1.515-0.877,2.284-1.31L95.969,56.114z"/>
<path style="fill:#7A6B59;" d="M74.902,512H25.156c-3.073,0-5.53-2.556-5.408-5.626l6.045-152.964l4.557-115.162h39.358
	l4.914,124.266l5.687,143.86C80.431,509.444,77.975,512,74.902,512z"/>
<path style="fill:#E5B77A;" d="M74.622,362.514c-24.214,8.844-41.057-2.014-48.829-9.103l1.678-42.443l0.703-17.86l2.175-54.859
	h39.358l2.165,54.859l0.715,17.86L74.622,362.514z"/>
<g>
	<polygon style="fill:#CE9F67;" points="71.873,293.106 72.587,310.967 27.47,310.967 28.175,293.106 	"/>
	<rect x="30.353" y="190.151" style="fill:#CE9F67;" width="39.358" height="46.907"/>
</g>
<path style="fill:#A56032;" d="M50.03,232.727c-4.484,0-8.119-3.635-8.119-8.119v-24.356c0-4.484,3.634-8.119,8.119-8.119
	s8.119,3.635,8.119,8.119v24.356C58.148,229.093,54.513,232.727,50.03,232.727z"/>
<path style="fill:#FFC373;" d="M68.263,247.16H31.021c-5.58,0-10.103-4.523-10.103-10.103l0,0c0-5.58,4.523-10.103,10.103-10.103
	h37.242c5.58,0,10.103,4.523,10.103,10.103l0,0C78.366,242.637,73.843,247.16,68.263,247.16z"/>
<path style="fill:#E5B77A;" d="M69.708,5.413v172.11h-35.83V5.413C33.879,2.423,36.302,0,39.291,0h25.004
	C67.285,0,69.708,2.423,69.708,5.413z"/>
<g>
	<rect x="33.879" y="136.025" style="fill:#CE9F67;" width="35.83" height="17.857"/>
	<rect x="33.879" y="23.814" style="fill:#CE9F67;" width="35.83" height="17.857"/>
</g>
<path style="fill:#E5B77A;" d="M84.853,171.325c-1.004-1.503-2.693-2.404-4.499-2.404H51.795h-0.001H23.234
	c-1.808,0-3.495,0.902-4.499,2.404l-5.442,8.142c-1.527,2.285-1.099,5.351,0.995,7.131l14.548,12.366
	c0.979,0.832,2.221,1.288,3.506,1.288h19.453h0.001h19.453c1.284,0,2.527-0.457,3.506-1.288l14.548-12.366
	c2.094-1.779,2.521-4.846,0.995-7.131L84.853,171.325z"/>
<g>
	<path style="fill:#FFC373;" d="M70.945,277.649H29.112c-4.484,0-8.119-3.635-8.119-8.119s3.634-8.119,8.119-8.119h41.832
		c4.484,0,8.119,3.635,8.119,8.119S75.429,277.649,70.945,277.649z"/>
	<path style="fill:#FFC373;" d="M71.873,301.064H28.175c-4.484,0-8.119-3.635-8.119-8.119s3.634-8.119,8.119-8.119h43.699
		c4.484,0,8.119,3.635,8.119,8.119S76.357,301.064,71.873,301.064z"/>
</g>
<path style="fill:#CE9F67;" d="M279.108,512h-49.747c-3.073,0-5.53-2.556-5.408-5.626l10.602-268.127h39.358l10.602,268.127
	C284.637,509.444,282.181,512,279.108,512z"/>
<path style="fill:#E5B77A;" d="M278.827,362.514c-24.214,8.844-41.057-2.014-48.829-9.103l1.678-42.443l0.703-17.86l2.175-54.859
	h39.358l2.165,54.859l0.715,17.86L278.827,362.514z"/>
<g>
	<polygon style="fill:#CE9F67;" points="276.078,293.106 276.792,310.967 231.676,310.967 232.379,293.106 	"/>
	<rect x="234.558" y="190.151" style="fill:#CE9F67;" width="39.358" height="46.907"/>
</g>
<path style="fill:#A56032;" d="M254.235,232.727c-4.484,0-8.119-3.635-8.119-8.119v-24.356c0-4.484,3.634-8.119,8.119-8.119
	c4.484,0,8.119,3.635,8.119,8.119v24.356C262.353,229.093,258.719,232.727,254.235,232.727z"/>
<path style="fill:#FFC373;" d="M272.469,247.16h-37.242c-5.58,0-10.103-4.523-10.103-10.103l0,0c0-5.58,4.523-10.103,10.103-10.103
	h37.242c5.58,0,10.103,4.523,10.103,10.103l0,0C282.572,242.637,278.048,247.16,272.469,247.16z"/>
<path style="fill:#E5B77A;" d="M275.861,5.413v172.11H236.14V5.413c0-2.989,2.423-5.413,5.413-5.413h28.897
	C273.438,0,275.861,2.423,275.861,5.413z"/>
<g>
	<rect x="236.135" y="136.025" style="fill:#CE9F67;" width="39.727" height="17.857"/>
	<rect x="236.135" y="23.814" style="fill:#CE9F67;" width="39.727" height="17.857"/>
</g>
<path style="fill:#E5B77A;" d="M289.058,171.325c-1.004-1.503-2.693-2.404-4.499-2.404h-28.56l0,0H227.44
	c-1.808,0-3.495,0.902-4.499,2.404l-5.442,8.142c-1.527,2.285-1.099,5.351,0.995,7.131l14.548,12.366
	c0.979,0.832,2.221,1.288,3.506,1.288h19.452l0,0h19.453c1.284,0,2.527-0.457,3.506-1.288l14.548-12.366
	c2.094-1.779,2.521-4.846,0.995-7.131L289.058,171.325z"/>
<g>
	<path style="fill:#FFC373;" d="M275.147,277.649h-41.833c-4.484,0-8.119-3.635-8.119-8.119s3.634-8.119,8.119-8.119h41.832
		c4.484,0,8.119,3.635,8.119,8.119C283.266,274.014,279.631,277.649,275.147,277.649z"/>
	<path style="fill:#FFC373;" d="M276.078,301.064h-43.699c-4.484,0-8.119-3.635-8.119-8.119s3.634-8.119,8.119-8.119h43.699
		c4.484,0,8.119,3.635,8.119,8.119S280.561,301.064,276.078,301.064z"/>
</g>
<path style="fill:#7A6B59;" d="M483.313,512h-49.747c-3.073,0-5.53-2.556-5.408-5.626l10.603-268.127h39.358l10.603,268.127
	C488.843,509.444,486.386,512,483.313,512z"/>
<path style="fill:#E5B77A;" d="M483.043,362.514c-24.214,8.844-41.057-2.014-48.829-9.103l1.678-42.443l0.703-17.86l2.175-54.859
	h39.358l2.165,54.859l0.715,17.86L483.043,362.514z"/>
<g>
	<polygon style="fill:#CE9F67;" points="481.007,310.967 435.891,310.967 436.594,293.106 480.293,293.106 	"/>
	<rect x="438.762" y="190.151" style="fill:#CE9F67;" width="39.358" height="46.907"/>
</g>
<path style="fill:#A56032;" d="M458.44,232.727c-4.484,0-8.119-3.635-8.119-8.119v-24.356c0-4.484,3.634-8.119,8.119-8.119
	c4.485,0,8.119,3.635,8.119,8.119v24.356C466.558,229.093,462.924,232.727,458.44,232.727z"/>
<path style="fill:#FFC373;" d="M476.674,247.16h-37.242c-5.58,0-10.103-4.523-10.103-10.103l0,0c0-5.58,4.523-10.103,10.103-10.103
	h37.242c5.58,0,10.103,4.523,10.103,10.103l0,0C486.776,242.637,482.253,247.16,476.674,247.16z"/>
<path style="fill:#E5B77A;" d="M478.117,5.413v172.11h-35.83V5.413c0-2.989,2.423-5.413,5.413-5.413h25.004
	C475.694,0,478.117,2.423,478.117,5.413z"/>
<g>
	<rect x="442.294" y="23.814" style="fill:#CE9F67;" width="35.83" height="17.857"/>
	<rect x="442.294" y="136.025" style="fill:#CE9F67;" width="35.83" height="17.857"/>
</g>
<path style="fill:#E5B77A;" d="M493.263,171.325c-1.004-1.503-2.693-2.404-4.499-2.404h-28.559h-0.001h-28.559
	c-1.808,0-3.495,0.902-4.499,2.404l-5.442,8.142c-1.527,2.285-1.099,5.351,0.995,7.131l14.548,12.366
	c0.979,0.832,2.221,1.288,3.506,1.288h19.453h0.001h19.453c1.284,0,2.527-0.457,3.506-1.288l14.548-12.366
	c2.094-1.779,2.521-4.846,0.995-7.131L493.263,171.325z"/>
<g>
	<path style="fill:#FFC373;" d="M479.363,277.649h-41.897c-4.484,0-8.119-3.635-8.119-8.119s3.634-8.119,8.119-8.119h41.897
		c4.484,0,8.119,3.635,8.119,8.119C487.481,274.014,483.846,277.649,479.363,277.649z"/>
	<path style="fill:#FFC373;" d="M480.293,301.064h-43.761c-4.484,0-8.119-3.635-8.119-8.119s3.634-8.119,8.119-8.119h43.761
		c4.484,0,8.119,3.635,8.119,8.119S484.777,301.064,480.293,301.064z"/>
</g>
<g>
</g>
<g>
</g>
<g>
</g>
<g>
</g>
<g>
</g>
<g>
</g>
<g>
</g>
<g>
</g>
<g>
</g>
<g>
</g>
<g>
</g>
<g>
</g>
<g>
</g>
<g>
</g>
<g>
</g>
</svg>
