<?xml version="1.0" encoding="iso-8859-1"?>
<!-- Generator: Adobe Illustrator 19.0.0, SVG Export Plug-In . SVG Version: 6.00 Build 0)  -->
<svg version="1.1" id="Capa_1" xmlns="http://www.w3.org/2000/svg" xmlns:xlink="http://www.w3.org/1999/xlink" x="0px" y="0px"
	 viewBox="0 0 463.009 463.009" style="enable-background:new 0 0 463.009 463.009;" xml:space="preserve">
<path d="M455.503,171.005c4.143,0,7.5-3.358,7.5-7.5s-3.357-7.5-7.5-7.5h-16.959c-0.465-3.929-1.274-7.753-2.425-11.431
	l22.669-11.028c3.667-1.784,5.236-6.17,3.533-9.875c-15.538-33.816-49.617-55.667-86.819-55.667c-27.697,0-53.948,12.123-72,32.854
	c-18.051-20.729-44.304-32.854-72-32.854c-27.697,0-53.948,12.123-72,32.854c-18.051-20.729-44.304-32.854-72-32.854
	c-37.198,0-71.275,21.847-86.815,55.658c-1.651,3.592-0.23,7.849,3.247,9.729l22.645,12.245c-0.984,3.351-1.698,6.814-2.118,10.368
	H7.503c-4.143,0-7.5,3.358-7.5,7.5s3.357,7.5,7.5,7.5h16.499v16.999h-16.5c-4.143,0-7.5,3.358-7.5,7.5s3.357,7.5,7.5,7.5h16.5
	v51.865l-11.854,5.927c-0.029,0.014-0.055,0.032-0.084,0.047c-0.138,0.071-0.271,0.148-0.403,0.228
	c-0.087,0.052-0.175,0.103-0.26,0.158c-0.107,0.07-0.21,0.146-0.314,0.222c-0.101,0.073-0.202,0.146-0.299,0.223
	c-0.079,0.064-0.153,0.132-0.229,0.199c-0.11,0.096-0.22,0.192-0.323,0.293c-0.063,0.062-0.12,0.128-0.18,0.191
	c-0.105,0.112-0.211,0.223-0.309,0.34c-0.061,0.073-0.117,0.151-0.175,0.227c-0.087,0.112-0.175,0.224-0.255,0.341
	c-0.069,0.1-0.13,0.205-0.194,0.308c-0.06,0.097-0.122,0.193-0.178,0.292c-0.072,0.13-0.136,0.265-0.201,0.4
	c-0.038,0.079-0.079,0.157-0.115,0.238c-0.063,0.145-0.118,0.295-0.172,0.444c-0.028,0.077-0.059,0.153-0.084,0.231
	c-0.046,0.142-0.084,0.287-0.122,0.432c-0.025,0.094-0.051,0.186-0.072,0.281c-0.027,0.125-0.047,0.252-0.068,0.38
	c-0.02,0.122-0.042,0.244-0.056,0.367c-0.012,0.104-0.018,0.209-0.026,0.314c-0.011,0.15-0.021,0.301-0.023,0.452
	c0,0.033-0.005,0.066-0.005,0.099v112.5h-0.5c-4.143,0-7.5,3.358-7.5,7.5s3.357,7.5,7.5,7.5h24c4.143,0,7.5-3.358,7.5-7.5
	s-3.357-7.5-7.5-7.5h-8.5V272.14l11.854-5.927c2.54-1.27,4.146-3.867,4.146-6.708v-56.5h0.5c4.143,0,7.5-3.358,7.5-7.5
	s-3.357-7.5-7.5-7.5h-0.5v-24.48c0-0.007,0.001-0.013,0.001-0.019c0-0.004-0.001-0.009-0.001-0.013
	c0.007-26.738,21.761-48.488,48.5-48.488c26.743,0,48.5,21.757,48.5,48.5v24.5h-0.5c-4.143,0-7.5,3.358-7.5,7.5s3.357,7.5,7.5,7.5
	h0.5v56.5c0,2.841,1.605,5.438,4.146,6.708l11.854,5.927v107.865h-8.5c-4.143,0-7.5,3.358-7.5,7.5s3.357,7.5,7.5,7.5h32
	c4.143,0,7.5-3.358,7.5-7.5s-3.357-7.5-7.5-7.5h-8.5V272.14l11.854-5.927c2.54-1.27,4.146-3.867,4.146-6.708v-56.5h0.5
	c4.143,0,7.5-3.358,7.5-7.5s-3.357-7.5-7.5-7.5h-0.5v-24.48c0-0.007,0.001-0.013,0.001-0.019c0-0.004-0.001-0.009-0.001-0.013
	c0.007-26.737,21.761-48.487,48.5-48.487c26.743,0,48.5,21.757,48.5,48.5v24.5h-0.5c-4.143,0-7.5,3.358-7.5,7.5s3.357,7.5,7.5,7.5
	h0.5v56.5c0,2.841,1.605,5.438,4.146,6.708l11.854,5.927v107.865h-8.5c-4.143,0-7.5,3.358-7.5,7.5s3.357,7.5,7.5,7.5h32
	c4.143,0,7.5-3.358,7.5-7.5s-3.357-7.5-7.5-7.5h-8.5V272.14l11.854-5.927c2.54-1.27,4.146-3.867,4.146-6.708v-56.5h0.5
	c4.143,0,7.5-3.358,7.5-7.5s-3.357-7.5-7.5-7.5h-0.5v-24.5c0-26.743,21.757-48.5,48.5-48.5s48.5,21.757,48.5,48.5v24.5h-0.5
	c-4.143,0-7.5,3.358-7.5,7.5s3.357,7.5,7.5,7.5h0.5v56.5c0,2.841,1.605,5.438,4.146,6.708l11.854,5.927v107.865h-8.5
	c-4.143,0-7.5,3.358-7.5,7.5s3.357,7.5,7.5,7.5h24c4.143,0,7.5-3.358,7.5-7.5s-3.357-7.5-7.5-7.5h-0.5v-112.5
	c0-0.034-0.005-0.066-0.005-0.099c-0.002-0.151-0.012-0.302-0.023-0.452c-0.008-0.105-0.014-0.21-0.026-0.314
	c-0.014-0.123-0.036-0.245-0.056-0.367c-0.021-0.127-0.041-0.255-0.068-0.38c-0.021-0.095-0.048-0.187-0.072-0.281
	c-0.038-0.145-0.075-0.291-0.122-0.433c-0.025-0.078-0.056-0.153-0.084-0.23c-0.055-0.15-0.109-0.301-0.173-0.446
	c-0.035-0.08-0.076-0.157-0.114-0.236c-0.065-0.135-0.129-0.271-0.201-0.401c-0.055-0.1-0.118-0.195-0.178-0.292
	c-0.064-0.103-0.125-0.208-0.194-0.308c-0.08-0.117-0.168-0.228-0.255-0.341c-0.058-0.076-0.114-0.153-0.175-0.227
	c-0.098-0.117-0.203-0.228-0.309-0.34c-0.06-0.064-0.118-0.13-0.18-0.191c-0.103-0.102-0.213-0.197-0.323-0.293
	c-0.076-0.067-0.15-0.135-0.229-0.199c-0.096-0.078-0.198-0.15-0.299-0.223c-0.104-0.076-0.207-0.152-0.314-0.222
	c-0.084-0.055-0.172-0.106-0.26-0.158c-0.133-0.079-0.266-0.157-0.404-0.228c-0.029-0.015-0.055-0.033-0.083-0.047l-11.854-5.927
	v-51.865h16.5c4.143,0,7.5-3.358,7.5-7.5s-3.357-7.5-7.5-7.5h-16.5v-16.999H455.503z M406.551,108.144l6.535-15.777
	c4.885,2.584,9.5,5.661,13.762,9.185l-12.094,12.094C412.173,111.608,409.433,109.766,406.551,108.144z M383.002,100.462V83.364
	c5.556,0.523,10.993,1.616,16.235,3.242l-6.538,15.784C389.557,101.505,386.32,100.855,383.002,100.462z M358.306,102.39
	l-6.537-15.781c5.252-1.631,10.69-2.727,16.233-3.25v17.102C364.685,100.855,361.448,101.505,358.306,102.39z M336.25,113.645
	l-12.072-12.071c4.267-3.538,8.875-6.617,13.744-9.197l6.531,15.767C341.572,109.766,338.832,111.608,336.25,113.645z
	 M294.544,156.005c-0.426-3.597-1.151-7.103-2.154-10.492l10.891-4.511l11.286,4.675c-0.978,3.338-1.688,6.788-2.107,10.328H294.544
	z M262.551,108.144l6.531-15.767c4.869,2.581,9.477,5.659,13.744,9.197l-12.072,12.072
	C268.173,111.608,265.433,109.766,262.551,108.144z M239.002,100.462V83.36c5.544,0.523,10.982,1.619,16.234,3.25l-6.537,15.781
	C245.557,101.505,242.32,100.855,239.002,100.462z M214.306,102.39l-6.536-15.781c5.252-1.631,10.69-2.727,16.233-3.25v17.102
	C220.685,100.855,217.447,101.505,214.306,102.39z M192.25,113.645l-12.072-12.071c4.267-3.538,8.875-6.617,13.744-9.197
	l6.531,15.767C197.572,109.766,194.832,111.608,192.25,113.645z M150.544,156.005c-0.426-3.597-1.151-7.103-2.154-10.492
	l10.891-4.511l11.286,4.675c-0.978,3.338-1.688,6.788-2.107,10.328H150.544z M118.551,108.144l6.531-15.767
	c4.869,2.581,9.477,5.659,13.744,9.197l-12.072,12.071C124.173,111.608,121.433,109.766,118.551,108.144z M95.002,100.462V83.36
	c5.544,0.523,10.982,1.619,16.234,3.25l-6.537,15.781C101.557,101.505,98.32,100.855,95.002,100.462z M70.306,102.39l-6.538-15.785
	c5.241-1.626,10.679-2.718,16.235-3.241v17.098C76.685,100.855,73.447,101.505,70.306,102.39z M48.25,113.645L36.155,101.55
	c4.263-3.524,8.879-6.597,13.764-9.181l6.534,15.775C53.572,109.766,50.832,111.608,48.25,113.645z M429.962,130.89
	c-1.391-2.315-2.934-4.526-4.6-6.637l12.109-12.109c2.913,3.502,5.549,7.265,7.855,11.272L429.962,130.89z M309.639,117.316
	c1.246-1.773,2.563-3.482,3.934-5.134l12.07,12.07c-1.902,2.411-3.632,4.961-5.174,7.634l-13.974-5.788
	c-0.91-0.377-1.885-0.571-2.87-0.571h-0.688c-0.984,0-1.96,0.194-2.87,0.571l-13.618,5.64c-1.52-2.62-3.221-5.12-5.088-7.486
	l12.07-12.07c1.371,1.653,2.688,3.361,3.934,5.134c1.404,1.999,3.694,3.188,6.137,3.188S308.235,119.314,309.639,117.316z
	 M165.639,117.316c1.246-1.773,2.563-3.482,3.934-5.134l12.07,12.07c-1.902,2.411-3.632,4.961-5.174,7.634l-13.974-5.788
	c-0.91-0.377-1.885-0.571-2.87-0.571h-0.688c-0.984,0-1.96,0.194-2.87,0.571l-13.618,5.64c-1.52-2.62-3.221-5.12-5.088-7.486
	l12.07-12.07c1.371,1.653,2.688,3.361,3.934,5.134c1.404,1.999,3.694,3.188,6.137,3.188S164.235,119.314,165.639,117.316z
	 M17.522,123.687c2.344-4.109,5.035-7.962,8.014-11.543l12.107,12.107c-1.881,2.384-3.594,4.904-5.123,7.546L17.522,123.687z
	 M168.002,254.869l-8.5,4.25l-8.5-4.25v-51.865h17V254.869z M151.002,188.004v-17h17v17H151.002z M312.002,254.869l-8.5,4.25
	l-8.5-4.25v-51.865h17V254.869z M295.002,188.004v-17h17v17H295.002z"/>
<g>
</g>
<g>
</g>
<g>
</g>
<g>
</g>
<g>
</g>
<g>
</g>
<g>
</g>
<g>
</g>
<g>
</g>
<g>
</g>
<g>
</g>
<g>
</g>
<g>
</g>
<g>
</g>
<g>
</g>
</svg>
